<?xml version="1.0" standalone="no"?>
<!DOCTYPE svg PUBLIC "-//W3C//DTD SVG 20010904//EN"
 "http://www.w3.org/TR/2001/REC-SVG-20010904/DTD/svg10.dtd">
<svg version="1.0" xmlns="http://www.w3.org/2000/svg"
 width="256.000000pt" height="256.000000pt" viewBox="0 0 256.000000 256.000000"
 preserveAspectRatio="xMidYMid meet">
<metadata>
Created by potrace 1.14, written by Peter Selinger 2001-2017
</metadata>
<g transform="translate(0.000000,256.000000) scale(0.100000,-0.100000)"
fill="#000000" stroke="none">
<path d="M587 2203 c-4 -3 -7 -26 -7 -50 0 -43 0 -43 -35 -43 -31 0 -35 -3
-35 -25 0 -22 4 -25 35 -25 35 0 35 0 35 -45 0 -55 9 -58 144 -53 103 3 138
19 164 71 l13 27 761 0 760 0 34 -34 c46 -46 46 -86 0 -132 l-34 -34 -533 0
c-518 0 -534 -1 -575 -21 -61 -29 -84 -71 -84 -152 l0 -66 -581 -3 -581 -3
-24 -28 -24 -28 0 -570 c0 -585 1 -597 39 -626 23 -18 2419 -18 2442 0 38 29
39 41 39 626 l0 570 -24 28 -24 28 -606 3 -606 3 0 59 c0 52 4 64 29 92 l29
33 554 5 c621 6 588 1 629 81 25 50 24 95 -4 143 -46 80 4 76 -852 76 l-760 0
-18 33 c-30 56 -61 67 -184 67 -60 0 -113 -3 -116 -7z m-139 -882 c2 -85 -1
-117 -10 -123 -7 -4 -57 -8 -110 -8 -125 0 -128 2 -128 121 0 132 -2 130 133
127 l112 -3 3 -114z m380 0 c2 -85 -1 -117 -10 -123 -7 -4 -57 -8 -110 -8
-125 0 -128 2 -128 121 0 132 -2 130 133 127 l112 -3 3 -114z m383 98 c17 -32
8 -207 -11 -219 -8 -5 -58 -10 -110 -10 -52 0 -102 5 -110 10 -19 12 -28 187
-11 219 11 19 20 21 121 21 101 0 110 -2 121 -21z m380 0 c17 -32 8 -207 -11
-219 -8 -5 -58 -10 -110 -10 -52 0 -102 5 -110 10 -19 12 -28 187 -11 219 11
19 20 21 121 21 101 0 110 -2 121 -21z m379 2 c5 -11 10 -60 10 -110 0 -119
-3 -121 -128 -121 -53 0 -104 5 -112 10 -19 12 -28 187 -11 219 11 19 20 21
121 21 98 0 110 -2 120 -19z m380 0 c5 -11 10 -60 10 -110 0 -118 -3 -121
-125 -121 -51 0 -100 3 -109 6 -13 5 -16 25 -16 118 0 62 3 116 7 119 3 4 55
7 114 7 97 0 109 -2 119 -19z m-1912 -319 c9 -6 12 -38 10 -123 l-3 -114 -110
-3 c-136 -3 -135 -4 -135 124 0 122 2 124 128 124 53 0 103 -4 110 -8z m380 0
c9 -6 12 -38 10 -123 l-3 -114 -110 -3 c-136 -3 -135 -4 -135 124 0 122 2 124
128 124 53 0 103 -4 110 -8z m382 -2 c19 -12 28 -187 11 -219 -11 -19 -20 -21
-121 -21 -132 0 -130 -2 -130 129 0 119 3 121 128 121 53 0 104 -5 112 -10z
m384 -6 c12 -12 16 -37 16 -105 0 -131 2 -129 -130 -129 -101 0 -110 2 -121
21 -17 32 -8 207 11 219 8 5 59 10 112 10 75 0 100 -4 112 -16z m380 0 c12
-12 16 -37 16 -105 0 -131 2 -129 -130 -129 -101 0 -110 2 -121 21 -17 32 -8
207 11 219 8 5 59 10 112 10 75 0 100 -4 112 -16z m380 0 c12 -12 16 -37 16
-108 0 -128 1 -127 -135 -124 l-110 3 -3 114 c-2 85 1 117 10 123 7 4 57 8
110 8 75 0 100 -4 112 -16z m-1899 -449 l0 -120 -110 -3 c-135 -3 -135 -4
-135 121 0 130 -2 128 133 125 l112 -3 0 -120z m1525 106 c13 -25 13 -187 0
-212 -10 -18 -29 -19 -690 -19 -786 0 -700 -15 -700 125 0 140 -86 125 700
125 661 0 680 -1 690 -19z m380 0 c15 -28 13 -193 -3 -214 -11 -15 -27 -17
-122 -15 l-110 3 -3 109 c-1 61 0 116 2 123 4 10 34 13 115 13 99 0 111 -2
121 -19z"/>
<path d="M267 1384 c-4 -4 -7 -36 -7 -71 l0 -63 70 0 71 0 -3 68 -3 67 -60 3
c-34 2 -64 0 -68 -4z"/>
<path d="M647 1384 c-4 -4 -7 -36 -7 -71 l0 -63 70 0 71 0 -3 68 -3 67 -60 3
c-34 2 -64 0 -68 -4z"/>
<path d="M1027 1384 c-4 -4 -7 -36 -7 -71 l0 -63 70 0 71 0 -3 68 -3 67 -60 3
c-34 2 -64 0 -68 -4z"/>
<path d="M1407 1384 c-4 -4 -7 -36 -7 -71 l0 -63 70 0 71 0 -3 68 -3 67 -60 3
c-34 2 -64 0 -68 -4z"/>
<path d="M1787 1384 c-4 -4 -7 -36 -7 -71 l0 -63 70 0 71 0 -3 68 -3 67 -60 3
c-34 2 -64 0 -68 -4z"/>
<path d="M2167 1384 c-4 -4 -7 -36 -7 -71 l0 -63 70 0 71 0 -3 68 -3 67 -60 3
c-34 2 -64 0 -68 -4z"/>
<path d="M262 983 l3 -68 65 0 65 0 3 68 3 67 -71 0 -71 0 3 -67z"/>
<path d="M642 983 l3 -68 65 0 65 0 3 68 3 67 -71 0 -71 0 3 -67z"/>
<path d="M1022 983 l3 -68 65 0 65 0 3 68 3 67 -71 0 -71 0 3 -67z"/>
<path d="M1402 983 l3 -68 65 0 65 0 3 68 3 67 -71 0 -71 0 3 -67z"/>
<path d="M1782 983 l3 -68 65 0 65 0 3 68 3 67 -71 0 -71 0 3 -67z"/>
<path d="M2162 983 l3 -68 65 0 65 0 3 68 3 67 -71 0 -71 0 3 -67z"/>
<path d="M260 645 l0 -65 70 0 70 0 0 65 0 65 -70 0 -70 0 0 -65z"/>
<path d="M640 645 l0 -65 640 0 640 0 0 65 0 65 -640 0 -640 0 0 -65z"/>
<path d="M2160 645 l0 -65 70 0 70 0 0 65 0 65 -70 0 -70 0 0 -65z"/>
</g>
</svg>
