<svg xmlns="http://www.w3.org/2000/svg" viewBox="0 0 256 256">
	<g
		fill="none"
		stroke-miterlimit="10"
		transform="translate(128 128) scale(0.74 0.74) translate(-170.55 -170.55000000000004) scale(3.79 3.79) matrix(1 0 0 1 0 0)">
		<rect fill="#353535" width="4.73" height="4.73" x="8.76" y="41.26" rx="0" ry="0" />
		<rect fill="#353535" width="45.38" height="4.73" x="22.31" y="65.25" rx="0" ry="0" />
		<rect fill="#353535" width="4.73" height="4.73" x="62.97" y="53.26" rx="0" ry="0" />
		<rect fill="#353535" width="4.73" height="4.73" x="49.41" y="53.26" rx="0" ry="0" />
		<rect fill="#353535" width="4.73" height="4.73" x="8.76" y="65.25" rx="0" ry="0" />
		<rect fill="#353535" width="4.73" height="4.73" x="22.31" y="53.26" rx="0" ry="0" />
		<rect fill="#353535" width="4.73" height="4.73" x="8.76" y="53.26" rx="0" ry="0" />
		<rect fill="#353535" width="4.73" height="4.73" x="22.31" y="41.26" rx="0" ry="0" />
		<rect fill="#353535" width="4.73" height="4.73" x="35.86" y="41.26" rx="0" ry="0" />
		<rect fill="#353535" width="4.73" height="4.73" x="49.41" y="41.26" rx="0" ry="0" />
		<rect fill="#353535" width="4.73" height="4.73" x="76.52" y="65.25" rx="0" ry="0" />
		<rect fill="#353535" width="4.73" height="4.73" x="35.86" y="53.26" rx="0" ry="0" />
		<rect fill="#353535" width="4.73" height="4.73" x="76.52" y="53.26" rx="0" ry="0" />
		<rect fill="#353535" width="4.73" height="4.73" x="76.52" y="41.26" rx="0" ry="0" />
		<rect fill="#353535" width="4.73" height="4.73" x="62.97" y="41.26" rx="0" ry="0" />
		<path
			fill="#13BBAF"
			d="M86.86 32.935H45v-3.101a3.542 3.542 0 0 1 3.538-3.538h35.924A5.544 5.544 0 0 0 90 20.757a5.544 5.544 0 0 0-5.538-5.538H31.501c-.458-2.012-2.253-3.521-4.401-3.521h-6.181a1 1 0 0 0-1 1v2.521h-2.6v2h2.6v2.521a1 1 0 0 0 1 1H27.1a4.522 4.522 0 0 0 4.401-3.521h52.961A3.542 3.542 0 0 1 88 20.757a3.543 3.543 0 0 1-3.538 3.539H48.538A5.544 5.544 0 0 0 43 29.834v3.101H3.139A3.142 3.142 0 0 0 0 36.074v39.089a3.143 3.143 0 0 0 3.139 3.139H86.86A3.143 3.143 0 0 0 90 75.163V36.074a3.143 3.143 0 0 0-3.14-3.139zm-39.447 7.32a1 1 0 0 1 1-1h6.726a1 1 0 0 1 1 1v6.726a1 1 0 0 1-1 1h-6.726a1 1 0 0 1-1-1v-6.726zm0 12a1 1 0 0 1 1-1h6.726a1 1 0 0 1 1 1v6.727a1 1 0 0 1-1 1h-6.726a1 1 0 0 1-1-1v-6.727zm-13.552-12a1 1 0 0 1 1-1h6.726a1 1 0 0 1 1 1v6.726a1 1 0 0 1-1 1h-6.726a1 1 0 0 1-1-1v-6.726zm0 12a1 1 0 0 1 1-1h6.726a1 1 0 0 1 1 1v6.727a1 1 0 0 1-1 1h-6.726a1 1 0 0 1-1-1v-6.727zm-13.552-12a1 1 0 0 1 1-1h6.726a1 1 0 0 1 1 1v6.726a1 1 0 0 1-1 1h-6.726a1 1 0 0 1-1-1v-6.726zm0 12a1 1 0 0 1 1-1h6.726a1 1 0 0 1 1 1v6.727a1 1 0 0 1-1 1h-6.726a1 1 0 0 1-1-1v-6.727zm-4.826 18.726a1 1 0 0 1-1 1H7.757a1 1 0 0 1-1-1v-6.727a1 1 0 0 1 1-1h6.726a1 1 0 0 1 1 1v6.727zm0-12a1 1 0 0 1-1 1H7.757a1 1 0 0 1-1-1v-6.727a1 1 0 0 1 1-1h6.726a1 1 0 0 1 1 1v6.727zm0-12a1 1 0 0 1-1 1H7.757a1 1 0 0 1-1-1v-6.726a1 1 0 0 1 1-1h6.726a1 1 0 0 1 1 1v6.726zm54.207 24a1 1 0 0 1-1 1H21.309a1 1 0 0 1-1-1v-6.727a1 1 0 0 1 1-1H68.69a1 1 0 0 1 1 1v6.727zm0-12a1 1 0 0 1-1 1h-6.726a1 1 0 0 1-1-1v-6.727a1 1 0 0 1 1-1h6.726a1 1 0 0 1 1 1v6.727zm0-12a1 1 0 0 1-1 1h-6.726a1 1 0 0 1-1-1v-6.726a1 1 0 0 1 1-1h6.726a1 1 0 0 1 1 1v6.726zm13.553 24a1 1 0 0 1-1 1h-6.727a1 1 0 0 1-1-1v-6.727a1 1 0 0 1 1-1h6.727a1 1 0 0 1 1 1v6.727zm0-12a1 1 0 0 1-1 1h-6.727a1 1 0 0 1-1-1v-6.727a1 1 0 0 1 1-1h6.727a1 1 0 0 1 1 1v6.727zm0-12a1 1 0 0 1-1 1h-6.727a1 1 0 0 1-1-1v-6.726a1 1 0 0 1 1-1h6.727a1 1 0 0 1 1 1v6.726z" />
	</g>
</svg>
