<svg xmlns="http://www.w3.org/2000/svg" xmlns:xlink="http://www.w3.org/1999/xlink" version="1.1" width="160" height="110" viewBox="0 0 256 256" xml:space="preserve">
<desc>Created with Fabric.js 1.7.22</desc>
<defs>
</defs>
<g transform="translate(128 128) scale(0.74 0.74)" style="">
	<g style="stroke: none; stroke-width: 0; stroke-dasharray: none; stroke-linecap: butt; stroke-linejoin: miter; stroke-miterlimit: 10; fill: none; fill-rule: nonzero; opacity: 1;" transform="translate(-170.55 -170.55000000000004) scale(3.79 3.79)" >
	<rect x="8.76" y="41.26" rx="0" ry="0" width="4.73" height="4.73" style="stroke: none; stroke-width: 1; stroke-dasharray: none; stroke-linecap: butt; stroke-linejoin: miter; stroke-miterlimit: 10; fill: rgb(0,0,0); fill-rule: nonzero; opacity: 1;" transform=" matrix(1 0 0 1 0 0) "/>
	<rect x="22.31" y="65.25" rx="0" ry="0" width="45.38" height="4.73" style="stroke: none; stroke-width: 1; stroke-dasharray: none; stroke-linecap: butt; stroke-linejoin: miter; stroke-miterlimit: 10; fill: rgb(0,0,0); fill-rule: nonzero; opacity: 1;" transform=" matrix(1 0 0 1 0 0) "/>
	<rect x="62.97" y="53.26" rx="0" ry="0" width="4.73" height="4.73" style="stroke: none; stroke-width: 1; stroke-dasharray: none; stroke-linecap: butt; stroke-linejoin: miter; stroke-miterlimit: 10; fill: rgb(0,0,0); fill-rule: nonzero; opacity: 1;" transform=" matrix(1 0 0 1 0 0) "/>
	<rect x="49.41" y="53.26" rx="0" ry="0" width="4.73" height="4.73" style="stroke: none; stroke-width: 1; stroke-dasharray: none; stroke-linecap: butt; stroke-linejoin: miter; stroke-miterlimit: 10; fill: rgb(0,0,0); fill-rule: nonzero; opacity: 1;" transform=" matrix(1 0 0 1 0 0) "/>
	<rect x="8.76" y="65.25" rx="0" ry="0" width="4.73" height="4.73" style="stroke: none; stroke-width: 1; stroke-dasharray: none; stroke-linecap: butt; stroke-linejoin: miter; stroke-miterlimit: 10; fill: rgb(0,0,0); fill-rule: nonzero; opacity: 1;" transform=" matrix(1 0 0 1 0 0) "/>
	<rect x="22.31" y="53.26" rx="0" ry="0" width="4.73" height="4.73" style="stroke: none; stroke-width: 1; stroke-dasharray: none; stroke-linecap: butt; stroke-linejoin: miter; stroke-miterlimit: 10; fill: rgb(0,0,0); fill-rule: nonzero; opacity: 1;" transform=" matrix(1 0 0 1 0 0) "/>
	<rect x="8.76" y="53.26" rx="0" ry="0" width="4.73" height="4.73" style="stroke: none; stroke-width: 1; stroke-dasharray: none; stroke-linecap: butt; stroke-linejoin: miter; stroke-miterlimit: 10; fill: rgb(0,0,0); fill-rule: nonzero; opacity: 1;" transform=" matrix(1 0 0 1 0 0) "/>
	<rect x="22.31" y="41.26" rx="0" ry="0" width="4.73" height="4.73" style="stroke: none; stroke-width: 1; stroke-dasharray: none; stroke-linecap: butt; stroke-linejoin: miter; stroke-miterlimit: 10; fill: rgb(0,0,0); fill-rule: nonzero; opacity: 1;" transform=" matrix(1 0 0 1 0 0) "/>
	<rect x="35.86" y="41.26" rx="0" ry="0" width="4.73" height="4.73" style="stroke: none; stroke-width: 1; stroke-dasharray: none; stroke-linecap: butt; stroke-linejoin: miter; stroke-miterlimit: 10; fill: rgb(0,0,0); fill-rule: nonzero; opacity: 1;" transform=" matrix(1 0 0 1 0 0) "/>
	<rect x="49.41" y="41.26" rx="0" ry="0" width="4.73" height="4.73" style="stroke: none; stroke-width: 1; stroke-dasharray: none; stroke-linecap: butt; stroke-linejoin: miter; stroke-miterlimit: 10; fill: rgb(0,0,0); fill-rule: nonzero; opacity: 1;" transform=" matrix(1 0 0 1 0 0) "/>
	<rect x="76.52" y="65.25" rx="0" ry="0" width="4.73" height="4.73" style="stroke: none; stroke-width: 1; stroke-dasharray: none; stroke-linecap: butt; stroke-linejoin: miter; stroke-miterlimit: 10; fill: rgb(0,0,0); fill-rule: nonzero; opacity: 1;" transform=" matrix(1 0 0 1 0 0) "/>
	<rect x="35.86" y="53.26" rx="0" ry="0" width="4.73" height="4.73" style="stroke: none; stroke-width: 1; stroke-dasharray: none; stroke-linecap: butt; stroke-linejoin: miter; stroke-miterlimit: 10; fill: rgb(0,0,0); fill-rule: nonzero; opacity: 1;" transform=" matrix(1 0 0 1 0 0) "/>
	<rect x="76.52" y="53.26" rx="0" ry="0" width="4.73" height="4.73" style="stroke: none; stroke-width: 1; stroke-dasharray: none; stroke-linecap: butt; stroke-linejoin: miter; stroke-miterlimit: 10; fill: rgb(0,0,0); fill-rule: nonzero; opacity: 1;" transform=" matrix(1 0 0 1 0 0) "/>
	<rect x="76.52" y="41.26" rx="0" ry="0" width="4.73" height="4.73" style="stroke: none; stroke-width: 1; stroke-dasharray: none; stroke-linecap: butt; stroke-linejoin: miter; stroke-miterlimit: 10; fill: rgb(0,0,0); fill-rule: nonzero; opacity: 1;" transform=" matrix(1 0 0 1 0 0) "/>
	<rect x="62.97" y="41.26" rx="0" ry="0" width="4.73" height="4.73" style="stroke: none; stroke-width: 1; stroke-dasharray: none; stroke-linecap: butt; stroke-linejoin: miter; stroke-miterlimit: 10; fill: rgb(0,0,0); fill-rule: nonzero; opacity: 1;" transform=" matrix(1 0 0 1 0 0) "/>
	<path d="M 86.86 32.935 H 45 v -3.101 c 0 -1.951 1.587 -3.538 3.538 -3.538 h 35.924 c 3.054 0 5.538 -2.484 5.538 -5.539 c 0 -3.054 -2.484 -5.538 -5.538 -5.538 H 31.501 c -0.458 -2.012 -2.253 -3.521 -4.401 -3.521 h -6.181 c -0.552 0 -1 0.448 -1 1 v 2.521 h -2.6 v 2 h 2.6 v 2.521 c 0 0.552 0.448 1 1 1 H 27.1 c 2.148 0 3.944 -1.509 4.401 -3.521 h 52.961 c 1.951 0 3.538 1.587 3.538 3.538 c 0 1.951 -1.587 3.539 -3.538 3.539 H 48.538 c -3.054 0 -5.538 2.484 -5.538 5.538 v 3.101 H 3.139 C 1.408 32.935 0 34.343 0 36.074 v 39.089 c 0 1.73 1.408 3.139 3.139 3.139 H 86.86 c 1.731 0 3.14 -1.408 3.14 -3.139 V 36.074 C 90 34.343 88.592 32.935 86.86 32.935 z M 47.413 40.255 c 0 -0.552 0.447 -1 1 -1 h 6.726 c 0.553 0 1 0.448 1 1 v 6.726 c 0 0.553 -0.447 1 -1 1 h -6.726 c -0.553 0 -1 -0.447 -1 -1 V 40.255 z M 47.413 52.255 c 0 -0.553 0.447 -1 1 -1 h 6.726 c 0.553 0 1 0.447 1 1 v 6.727 c 0 0.553 -0.447 1 -1 1 h -6.726 c -0.553 0 -1 -0.447 -1 -1 V 52.255 z M 33.861 40.255 c 0 -0.552 0.448 -1 1 -1 h 6.726 c 0.552 0 1 0.448 1 1 v 6.726 c 0 0.553 -0.448 1 -1 1 h -6.726 c -0.552 0 -1 -0.447 -1 -1 V 40.255 z M 33.861 52.255 c 0 -0.553 0.448 -1 1 -1 h 6.726 c 0.552 0 1 0.447 1 1 v 6.727 c 0 0.553 -0.448 1 -1 1 h -6.726 c -0.552 0 -1 -0.447 -1 -1 V 52.255 z M 20.309 40.255 c 0 -0.552 0.448 -1 1 -1 h 6.726 c 0.552 0 1 0.448 1 1 v 6.726 c 0 0.553 -0.448 1 -1 1 h -6.726 c -0.552 0 -1 -0.447 -1 -1 V 40.255 z M 20.309 52.255 c 0 -0.553 0.448 -1 1 -1 h 6.726 c 0.552 0 1 0.447 1 1 v 6.727 c 0 0.553 -0.448 1 -1 1 h -6.726 c -0.552 0 -1 -0.447 -1 -1 V 52.255 z M 15.483 70.981 c 0 0.553 -0.448 1 -1 1 H 7.757 c -0.552 0 -1 -0.447 -1 -1 v -6.727 c 0 -0.553 0.448 -1 1 -1 h 6.726 c 0.552 0 1 0.447 1 1 V 70.981 z M 15.483 58.981 c 0 0.553 -0.448 1 -1 1 H 7.757 c -0.552 0 -1 -0.447 -1 -1 v -6.727 c 0 -0.553 0.448 -1 1 -1 h 6.726 c 0.552 0 1 0.447 1 1 V 58.981 z M 15.483 46.981 c 0 0.553 -0.448 1 -1 1 H 7.757 c -0.552 0 -1 -0.447 -1 -1 v -6.726 c 0 -0.552 0.448 -1 1 -1 h 6.726 c 0.552 0 1 0.448 1 1 V 46.981 z M 69.69 70.981 c 0 0.553 -0.447 1 -1 1 H 21.309 c -0.552 0 -1 -0.447 -1 -1 v -6.727 c 0 -0.553 0.448 -1 1 -1 H 68.69 c 0.553 0 1 0.447 1 1 V 70.981 z M 69.69 58.981 c 0 0.553 -0.447 1 -1 1 h -6.726 c -0.553 0 -1 -0.447 -1 -1 v -6.727 c 0 -0.553 0.447 -1 1 -1 h 6.726 c 0.553 0 1 0.447 1 1 V 58.981 z M 69.69 46.981 c 0 0.553 -0.447 1 -1 1 h -6.726 c -0.553 0 -1 -0.447 -1 -1 v -6.726 c 0 -0.552 0.447 -1 1 -1 h 6.726 c 0.553 0 1 0.448 1 1 V 46.981 z M 83.243 70.981 c 0 0.553 -0.447 1 -1 1 h -6.727 c -0.553 0 -1 -0.447 -1 -1 v -6.727 c 0 -0.553 0.447 -1 1 -1 h 6.727 c 0.553 0 1 0.447 1 1 V 70.981 z M 83.243 58.981 c 0 0.553 -0.447 1 -1 1 h -6.727 c -0.553 0 -1 -0.447 -1 -1 v -6.727 c 0 -0.553 0.447 -1 1 -1 h 6.727 c 0.553 0 1 0.447 1 1 V 58.981 z M 83.243 46.981 c 0 0.553 -0.447 1 -1 1 h -6.727 c -0.553 0 -1 -0.447 -1 -1 v -6.726 c 0 -0.552 0.447 -1 1 -1 h 6.727 c 0.553 0 1 0.448 1 1 V 46.981 z" style="stroke: none; stroke-width: 1; stroke-dasharray: none; stroke-linecap: butt; stroke-linejoin: miter; stroke-miterlimit: 10; fill: rgb(0,0,0); fill-rule: nonzero; opacity: 1;" transform=" matrix(1 0 0 1 0 0) " stroke-linecap="round" />
</g>
</g>
</svg>